<svg id="visual" viewBox="0 0 960 540" width="960" height="540" xmlns="http://www.w3.org/2000/svg" xmlns:xlink="http://www.w3.org/1999/xlink" version="1.1"><rect width="960" height="540" fill="#242526"></rect><g><g transform="translate(870 52)"><path d="M0 -98.4L69.6 -69.6L98.4 0L69.6 69.6L0 98.4L-69.6 69.6L-98.4 0L-69.6 -69.6Z" fill="none" stroke="#6e6e6e" stroke-width="4"></path></g><g transform="translate(173 163)"><path d="M0 -89L62.9 -62.9L89 0L62.9 62.9L0 89L-62.9 62.9L-89 0L-62.9 -62.9Z" fill="none" stroke="#6e6e6e" stroke-width="4"></path></g><g transform="translate(214 452)"><path d="M0 -53L37.5 -37.5L53 0L37.5 37.5L0 53L-37.5 37.5L-53 0L-37.5 -37.5Z" stroke="#6e6e6e" fill="none" stroke-width="4"></path></g><g transform="translate(495 58)"><path d="M0 -38L26.9 -26.9L38 0L26.9 26.9L0 38L-26.9 26.9L-38 0L-26.9 -26.9Z" stroke="#6e6e6e" fill="none" stroke-width="4"></path></g></g></svg>