<svg id="visual" viewBox="0 0 900 600" width="900" height="600" xmlns="http://www.w3.org/2000/svg" xmlns:xlink="http://www.w3.org/1999/xlink" version="1.1"><rect x="0" y="0" width="900" height="600" fill="#074564"></rect><path d="M0 163L12.5 169.2C25 175.3 50 187.7 75 192.2C100 196.7 125 193.3 150 201C175 208.7 200 227.3 225 232.5C250 237.7 275 229.3 300 211.3C325 193.3 350 165.7 375 152.7C400 139.7 425 141.3 450 161.7C475 182 500 221 525 242.3C550 263.7 575 267.3 600 255.3C625 243.3 650 215.7 675 193.3C700 171 725 154 750 165.3C775 176.7 800 216.3 825 221.3C850 226.3 875 196.7 887.5 181.8L900 167L900 0L887.5 0C875 0 850 0 825 0C800 0 775 0 750 0C725 0 700 0 675 0C650 0 625 0 600 0C575 0 550 0 525 0C500 0 475 0 450 0C425 0 400 0 375 0C350 0 325 0 300 0C275 0 250 0 225 0C200 0 175 0 150 0C125 0 100 0 75 0C50 0 25 0 12.5 0L0 0Z" fill="#0066FF" stroke-linecap="round" stroke-linejoin="miter"></path></svg>